<?xml version="1.0" encoding="iso-8859-1"?>
<!-- Generator: Adobe Illustrator 19.0.0, SVG Export Plug-In . SVG Version: 6.00 Build 0)  -->
<svg version="1.1" id="Layer_1" xmlns="http://www.w3.org/2000/svg" xmlns:xlink="http://www.w3.org/1999/xlink" x="0px" y="0px"
	 viewBox="0 0 496.2 496.2" style="enable-background:new 0 0 496.2 496.2;" xml:space="preserve">
<path style="fill:#FABC3D;" d="M496.2,248.1C496.2,111.1,385.1,0,248.1,0S0,111.1,0,248.1s111.1,248.1,248.1,248.1
	S496.2,385.1,496.2,248.1z"/>
<path style="fill:#EA5454;" d="M385.8,161.1H110.4l26.5,231.1h0.1c1.2,15.8,50.6,28.5,111.2,28.5c60.7,0,110-12.7,111.2-28.5l0,0
	L385.8,161.1z"/>
<path style="fill:#FBDDDD;" d="M248.3,278.1c-37.2,0-79.3-2.7-110-22.7c-32.3-21.1-48-58.4-48-114.1h7.2
	c0,107.9,57.7,129.6,150.7,129.6c36,0,76.7-2.6,106-21.8c30.1-19.7,44.7-55,44.7-107.8h7.2c0,55.4-15.7,92.7-47.9,113.8
	C327.4,275.3,285.4,278.1,248.3,278.1z"/>
<path style="fill:#D82727;" d="M291,275c0,5.2-4.2,9.4-9.4,9.4h-67.5c-5.2,0-9.4-4.2-9.4-9.4v-3.1c0-5.2,4.2-9.4,9.4-9.4h67.5
	c5.2,0,9.4,4.2,9.4,9.4V275z"/>
<path style="fill:#E04444;" d="M124.3,166.7c26,10.4,59.1,20.9,123.8,20.9c67.8,0,97.9-10.4,123.8-20.9
	c-29,7.9-73.7,12.9-123.8,12.9S153.3,174.6,124.3,166.7z"/>
<path style="fill:#EA4949;" d="M406.6,133.8h-317v11.3h0.1c0,0.1,0,0.2,0,0.3c0,18.9,70.9,34.2,158.4,34.2s158.4-15.3,158.4-34.2
	c0-0.1,0-0.2,0-0.3l0,0v-11.3H406.6z"/>
<path style="fill:#EF6565;" d="M406.5,134.6c0-18.9-70.9-34.2-158.4-34.2S89.7,115.7,89.7,134.6s70.9,34.2,158.4,34.2
	S406.5,153.5,406.5,134.6z"/>
<path style="fill:#D82727;" d="M381.6,134.6c0-15.9-59.8-28.8-133.5-28.8s-133.5,12.9-133.5,28.8c0,5.5,7.1,10.6,19.4,15
	c23.4,8.3,204.7,8.3,228.1,0C374.5,145.2,381.6,140.1,381.6,134.6z"/>
<g>
	<path style="fill:#A3D5E0;" d="M362.2,149.6c-23.4-8.3-65.7-13.8-114-13.8s-90.6,5.5-114,13.8c23.4,8.3,65.7,13.8,114,13.8
		C296.4,163.4,338.7,157.9,362.2,149.6z"/>
	<path style="fill:#A3D5E0;" d="M337.1,156.1c9.7-1.9,18.2-4.1,25.1-6.5c-23.4-8.3-65.7-13.8-114-13.8s-90.6,5.5-114,13.8
		c6.8,2.4,15.3,4.6,25.1,6.5c23.6-4.6,54.8-7.3,89-7.3C282.3,148.8,313.5,151.5,337.1,156.1z"/>
</g>
<g>
</g>
<g>
</g>
<g>
</g>
<g>
</g>
<g>
</g>
<g>
</g>
<g>
</g>
<g>
</g>
<g>
</g>
<g>
</g>
<g>
</g>
<g>
</g>
<g>
</g>
<g>
</g>
<g>
</g>
</svg>
