<?xml version="1.0" encoding="iso-8859-1"?>
<!-- Generator: Adobe Illustrator 19.0.0, SVG Export Plug-In . SVG Version: 6.00 Build 0)  -->
<svg version="1.1" id="Layer_1" xmlns="http://www.w3.org/2000/svg" xmlns:xlink="http://www.w3.org/1999/xlink" x="0px" y="0px"
	 viewBox="0 0 496.157 496.157" style="enable-background:new 0 0 496.157 496.157;" xml:space="preserve">
<path style="fill:#A3D5E0;" d="M248.077,0C111.072,0,0,111.063,0,248.083c0,137.004,111.071,248.074,248.076,248.074
	c137.012,0,248.081-111.07,248.081-248.074C496.158,111.063,385.088,0,248.077,0z"/>
<path style="fill:#E5AA17;" d="M248.079,97.743c0,0-151.866,126.003-151.866,138.848v120.816c0,12.845,10.412,23.265,23.262,23.265
	h81.613v-72.129c0-16.777,13.599-30.372,30.374-30.372h34.167c16.771,0,30.374,13.595,30.374,30.372v72.129h83.215
	c12.845,0,23.259-10.42,23.259-23.265V236.592C402.476,223.746,248.079,97.743,248.079,97.743z"/>
<g>
	<path style="fill:#C69422;" d="M436.402,229.347L259.496,76.509c-6.683-5.772-16.773-5.038-22.544,1.641
		c-5.771,6.687-5.034,16.778,1.648,22.546l176.905,152.837c6.682,5.769,16.772,5.03,22.541-1.648
		C443.818,245.202,443.082,235.115,436.402,229.347z"/>
	<path style="fill:#C69422;" d="M261.795,78.149c-5.769-6.679-15.857-7.413-22.538-1.641L62.346,229.347
		c-6.68,5.769-7.416,15.856-1.646,22.539c5.769,6.679,15.859,7.417,22.54,1.648l176.909-152.837
		C266.831,94.927,267.568,84.837,261.795,78.149z"/>
</g>
<g>
</g>
<g>
</g>
<g>
</g>
<g>
</g>
<g>
</g>
<g>
</g>
<g>
</g>
<g>
</g>
<g>
</g>
<g>
</g>
<g>
</g>
<g>
</g>
<g>
</g>
<g>
</g>
<g>
</g>
</svg>
